Genre:Comedy
Language:English
IMDb:http://www.imdb.com/title/tt1468387/
Source:1080p BluRay x264-Japhson Thanks!
Encoder:Tony

Format : AVI
Format/Info : Audio Video Interleave
File size : 1.34 GiB
Duration : 1h 58mn
Overall bit rate : 1 625 Kbps

Video
ID : 0
Format : MPEG-4 Visual
Format profile : Advanced Simple@L5
Format settings, BVOP : 1
Format settings, QPel : No
Format settings, GMC : No warppoints
Format settings, Matrix : Default (H.263)
Codec ID : XVID
Codec ID/Hint : XviD
Duration : 1h 58mn
Bit rate : 1 168 Kbps
Width : 640 pixels
Height : 360 pixels
Display aspect ratio : 16:9
Frame rate : 23.976 fps
Color space : YUV
Chroma subsampling : 4:2:0
Bit depth : 8 bits
Scan type : Progressive
Compression mode : Lossy
Bits/(Pixel*Frame) : 0.211
Stream size : 989 MiB (72%)
Writing library : XviD 1.2.1 (UTC 2008-12-04)

Audio
ID : 1
Format : AC-3
Format/Info : Audio Coding 3
Mode extension : CM (complete main)
Codec ID : 2000
Duration : 1h 58mn
Bit rate mode : Constant
Bit rate : 448 Kbps
Channel(s) : 6 channels
Channel positions : Front: L C R, Side: L R, LFE
Sampling rate : 48.0 KHz
Bit depth : 16 bits
Compression mode : Lossy
Stream size : 379 MiB (28%)
Alignment : Aligned on interleaves
Interleave, duration : 42 ms (1.00 video frame)
Interleave, preload duration : 512 ms


Plot:
5 years ago, Ben Walker left his girlfriend and his ministry calling for a business opportunity. Now with a high-paying career and a trophy fiancΘ.
